<svg width="54" height="54" viewBox="0 0 54 54" fill="none" xmlns="http://www.w3.org/2000/svg">
<g clip-path="url(#clip0_7_11)">
<path d="M27.158 53.7981C41.9824 53.7981 54 41.7806 54 26.9562C54 12.1318 41.9824 0.114227 27.158 0.114227C12.3336 0.114227 0.316101 12.1318 0.316101 26.9562C0.316101 41.7806 12.3336 53.7981 27.158 53.7981Z" fill="#1769FF"/>
<path d="M19.2795 14.7936C20.4369 14.7936 21.4934 14.8966 22.449 15.1006C23.4045 15.3046 24.2205 15.6396 24.9012 16.1056C25.5819 16.5716 26.1102 17.19 26.486 17.9631C26.8618 18.7361 27.0486 19.6895 27.0486 20.8255C27.0486 22.0516 26.7694 23.0738 26.2133 23.8919C25.6571 24.7101 24.8325 25.38 23.7438 25.9018C25.2427 26.3335 26.3614 27.0893 27.1001 28.1673C27.8388 29.2453 28.2082 30.5466 28.2082 32.069C28.2082 33.2952 27.9698 34.3581 27.4931 35.2557C27.0164 36.1533 26.3743 36.8856 25.5669 37.4525C24.7595 38.0215 23.8404 38.4402 22.8076 38.713C21.7682 38.9857 20.6967 39.1231 19.623 39.121H7.83191V14.7936H19.2795ZM18.5987 24.6392C19.5522 24.6392 20.336 24.4116 20.9501 23.9585C21.5642 23.5032 21.8713 22.7667 21.8692 21.7446C21.8692 21.1777 21.7661 20.7117 21.5621 20.3488C21.3581 19.9859 21.0854 19.7003 20.744 19.4963C20.4025 19.2923 20.0117 19.1505 19.5694 19.0711C19.1141 18.9916 18.6524 18.9508 18.1886 18.953H13.1831V24.6435L18.5987 24.6392ZM18.9058 34.9615C19.4104 34.9637 19.9129 34.9121 20.4047 34.8091C20.8814 34.706 21.3023 34.5363 21.6652 34.298C22.0281 34.0596 22.318 33.7354 22.5348 33.3274C22.7496 32.9194 22.8591 32.3954 22.8591 31.7598C22.8591 30.5122 22.5069 29.6189 21.8026 29.0864C21.0983 28.5517 20.1663 28.2854 19.0089 28.2854H13.1831V34.9637L18.9058 34.9615ZM34.938 34.4505C35.6638 35.1548 36.7095 35.507 38.0731 35.507C39.0502 35.507 39.8898 35.2622 40.5941 34.7747C41.2984 34.2873 41.7301 33.7697 41.889 33.2243H46.1472C45.4665 35.3373 44.4207 36.8469 43.012 37.7552C41.6034 38.6636 39.9005 39.1188 37.9013 39.1188C36.5163 39.1188 35.2665 38.8976 34.1542 38.4553C33.0419 38.0129 32.0992 37.3816 31.3261 36.5635C30.5531 35.7453 29.9561 34.7704 29.5374 33.6345C29.1186 32.4985 28.9082 31.2487 28.9082 29.8873C28.9082 28.571 29.1229 27.3449 29.5546 26.2089C29.9862 25.073 30.6003 24.0916 31.3948 23.2627C32.1894 22.4339 33.1385 21.7811 34.2401 21.3043C35.3417 20.8276 36.5635 20.5893 37.9035 20.5893C39.4023 20.5893 40.7079 20.8792 41.8224 21.459C42.9347 22.0387 43.8495 22.8161 44.5646 23.7931C45.2796 24.7702 45.7972 25.8825 46.115 27.1323C46.4328 28.382 46.5466 29.6876 46.4564 31.0512H33.7483C33.8149 32.6123 34.2122 33.7483 34.938 34.4505ZM40.4073 25.1846C39.8275 24.549 38.9471 24.2312 37.766 24.2312C36.993 24.2312 36.3509 24.3622 35.842 24.622C35.3309 24.884 34.9229 25.2061 34.6159 25.5926C34.3088 25.9791 34.0941 26.3871 33.9695 26.8188C33.845 27.2504 33.7698 27.6369 33.7483 27.9762H41.6184C41.3886 26.7522 40.9849 25.8202 40.4073 25.1846ZM32.9195 16.0283H42.7522V18.7554H32.9195V16.0283Z" fill="white"/>
</g>
<defs>
<clipPath id="clip0_7_11">
<rect width="53.6839" height="53.6839" fill="white" transform="translate(0.316101 0.114227)"/>
</clipPath>
</defs>
</svg>
