<svg width="53" height="53" viewBox="0 0 53 53" fill="none" xmlns="http://www.w3.org/2000/svg">
<g clip-path="url(#clip0_7_15)">
<path d="M26.4412 0.117371C41.0452 0.117371 52.8826 11.9565 52.8826 26.5588C52.8826 41.1611 41.0452 53 26.4412 53C11.8373 53 0 41.1609 0 26.5588C0 11.9566 11.8375 0.117371 26.4412 0.117371Z" fill="#0E76A8"/>
<path d="M14.8997 36.4477H19.8509V19.945H14.8997V36.4477ZM34.1887 19.3733C31.7858 19.3733 29.6358 20.2509 28.1106 22.1878V19.8907H23.1412V36.4479H28.1106V27.4942C28.1106 25.6019 29.8442 23.756 32.0156 23.756C34.1871 23.756 34.7226 25.6019 34.7226 27.4479V36.4463H39.6737V27.0794C39.6736 20.5731 36.5932 19.3733 34.1887 19.3733ZM17.3521 18.2958C18.7205 18.2958 19.8311 17.1852 19.8311 15.8168C19.8311 14.4485 18.7205 13.3381 17.3521 13.3381C15.9838 13.3381 14.8732 14.4487 14.8732 15.817C14.8732 17.1854 15.9838 18.2958 17.3521 18.2958Z" fill="white"/>
</g>
<defs>
<clipPath id="clip0_7_15">
<rect width="52.8826" height="52.8826" fill="white" transform="translate(0 0.117371)"/>
</clipPath>
</defs>
</svg>
